<svg width="2580" height="2580" viewBox="0 0 2580 2580" fill="none" xmlns="http://www.w3.org/2000/svg">
<g clip-path="url(#clip0_103_2)">
<path d="M0 960C0 623.969 0 455.953 65.3961 327.606C122.92 214.708 214.708 122.92 327.606 65.3961C455.953 0 623.969 0 960 0H1620C1956.03 0 2124.05 0 2252.39 65.3961C2365.29 122.92 2457.08 214.708 2514.6 327.606C2580 455.953 2580 623.969 2580 960V1620C2580 1956.03 2580 2124.05 2514.6 2252.39C2457.08 2365.29 2365.29 2457.08 2252.39 2514.6C2124.05 2580 1956.03 2580 1620 2580H960C623.969 2580 455.953 2580 327.606 2514.6C214.708 2457.08 122.92 2365.29 65.3961 2252.39C0 2124.05 0 1956.03 0 1620V960Z" fill="#1A1A1A"/>
<path d="M1289.14 444.888C1354.56 444.888 1407.59 391.858 1407.59 326.444C1407.59 261.029 1354.56 208 1289.14 208C1223.73 208 1170.7 261.029 1170.7 326.444C1170.7 391.858 1223.73 444.888 1289.14 444.888Z" fill="#1A1A1A"/>
<path d="M1373.66 720.83H1204.63L747.5 1916.79H930.609L1289.14 978.845L1647.68 1916.79H1830.79L1373.66 720.83Z" fill="#1A1A1A"/>
<path d="M1407.59 2253.56C1407.59 2188.14 1354.56 2135.11 1289.14 2135.11C1223.73 2135.11 1170.7 2188.14 1170.7 2253.56C1170.7 2318.97 1223.73 2372 1289.14 2372C1354.56 2372 1407.59 2318.97 1407.59 2253.56Z" fill="#1A1A1A"/>
<path fill-rule="evenodd" clip-rule="evenodd" d="M1407.59 326.444C1407.59 391.858 1354.56 444.888 1289.14 444.888C1223.73 444.888 1170.7 391.858 1170.7 326.444C1170.7 261.029 1223.73 208 1289.14 208C1354.56 208 1407.59 261.029 1407.59 326.444ZM1204.63 720.83H1373.66L1830.79 1916.79H1647.68L1289.14 978.845L930.609 1916.79H747.5L1204.63 720.83ZM1407.59 2253.56C1407.59 2318.97 1354.56 2372 1289.14 2372C1223.73 2372 1170.7 2318.97 1170.7 2253.56C1170.7 2188.14 1223.73 2135.11 1289.14 2135.11C1354.56 2135.11 1407.59 2188.14 1407.59 2253.56Z" fill="#A78BFA"/>
</g>
<defs>
<clipPath id="clip0_103_2">
<rect width="2580" height="2580" fill="white"/>
</clipPath>
</defs>
</svg>
